# xmcd CD database file
#
# Track frame offsets:
#	150
#	20347
#	40397
#	58242
#	79360
#	90612
#	101867
#	115190
#	132660
#	150597
#	174700
#	193815
#	210472
#	227302
#	243130
#	261672
#	277580
#
# Disc length: 3948 seconds
#
# Revision: 0
# Processed by: cddbd v1.5.1PL0 Copyright (c) Steve Scherf et al.
# Submitted via: CDex 1.51
#
DISCID=ec0f6a11
DTITLE=Jimmy McCracklin - Tell It To The Judge!
DYEAR=1999
DGENRE=Blues
TTITLE0=Good Old Days
TTITLE1=Hate Will Destroy The World
TTITLE2=Same Lovin' In Return
TTITLE3=Like My Mama
TTITLE4=Would Man Be Satisfied
TTITLE5=Think
TTITLE6=I Just Got To Know
TTITLE7=I Got Somebody
TTITLE8=Stuck With Loneliness
TTITLE9=Put Up Or Shut Up
TTITLE10=My Answer
TTITLE11=Not The Right Thing
TTITLE12=Bad Situation
TTITLE13=Double Dealin' On Me
TTITLE14=After Hours
TTITLE15=In The Alley
TTITLE16=Tell it To The Judge
EXTD=YEAR: 1999
EXTT0=
EXTT1=
EXTT2=
EXTT3=
EXTT4=
EXTT5=
EXTT6=
EXTT7=
EXTT8=
EXTT9=
EXTT10=
EXTT11=
EXTT12=
EXTT13=
EXTT14=
EXTT15=
EXTT16=
PLAYORDER=
